<?xml version="1.0" encoding="UTF-8" standalone="no"?>
<!-- Created with Inkscape (http://www.inkscape.org/) -->

<svg
   width="2048"
   height="2048"
   viewBox="0 0 541.86666 541.86667"
   version="1.1"
   id="svg342"
   inkscape:version="1.2.2 (b0a8486541, 2022-12-01)"
   sodipodi:docname="text-post-page0.svg"
   inkscape:export-filename="page0.png"
   inkscape:export-xdpi="96"
   inkscape:export-ydpi="96"
   xml:space="preserve"
   xmlns:inkscape="http://www.inkscape.org/namespaces/inkscape"
   xmlns:sodipodi="http://sodipodi.sourceforge.net/DTD/sodipodi-0.dtd"
   xmlns="http://www.w3.org/2000/svg"
   xmlns:svg="http://www.w3.org/2000/svg"><sodipodi:namedview
     id="namedview344"
     pagecolor="#ffffff"
     bordercolor="#666666"
     borderopacity="1.0"
     inkscape:showpageshadow="2"
     inkscape:pageopacity="0.0"
     inkscape:pagecheckerboard="true"
     inkscape:deskcolor="#d1d1d1"
     inkscape:document-units="mm"
     showgrid="false"
     inkscape:zoom="0.2973261"
     inkscape:cx="933.31867"
     inkscape:cy="655.84555"
     inkscape:window-width="1920"
     inkscape:window-height="1114"
     inkscape:window-x="0"
     inkscape:window-y="0"
     inkscape:window-maximized="1"
     inkscape:current-layer="layer1" /><defs
     id="defs339" /><g
     inkscape:label="Layer 1"
     inkscape:groupmode="layer"
     id="layer1"><rect
       style="fill:#181d27;fill-opacity:1;stroke:none;stroke-width:0.002"
       id="rect2984"
       width="541.86664"
       height="541.86664"
       x="0"
       y="0"
       ry="0" /><g
       id="g1562"
       transform="matrix(0.00463787,0,0,0.00463787,43.996233,-112.80278)"
       style="fill:#ffebbc;fill-opacity:1"><g
         id="g1813"
         transform="translate(1488.161,-3574.3476)"
         style="fill:#ffebbc;fill-opacity:1"><path
           id="path515"
           style="fill:#ffebbc;fill-opacity:1;stroke:none;stroke-width:17.0214px;stroke-linecap:butt;stroke-linejoin:miter;stroke-opacity:1"
           d="m 14622.525,49070.219 c -463.448,0 -930.812,30.701 -1398.502,75.365 l -760.571,3448.582 h 4318.174 l -760.571,-3448.582 c -467.7,-44.665 -935.072,-75.365 -1398.53,-75.365 z" /><path
           id="path1184-6"
           style="fill:#ffebbc;fill-opacity:1;stroke:none;stroke-width:13.7732px;stroke-linecap:butt;stroke-linejoin:miter;stroke-opacity:1"
           d="m 14622.526,55365.308 a 9960.0266,9960.0266 0 0 0 -101.739,0.539 c -360.944,365.815 -872.839,989.469 -1472.976,2019.438 -1194.386,2049.832 -1391.899,3711.979 -1391.899,3711.979 0,0 1648.012,-1613.894 5201.797,-2420.905 2391.049,-542.971 3985.7,-508.087 4774.074,-427.184 a 9960.0266,9960.0266 0 0 0 -7009.257,-2883.867 z" /><path
           id="path1184-0-75"
           style="fill:#ffebbc;fill-opacity:1;stroke:none;stroke-width:13.7731px;stroke-linecap:butt;stroke-linejoin:miter;stroke-opacity:1"
           d="m 23248.174,60345.311 a 9960.0263,9960.0263 0 0 0 -51.334,-87.838 c -497.278,-129.679 -1293.326,-261.167 -2485.373,-265.917 -2372.401,-9.452 -3910.619,650.57 -3910.619,650.57 0,0 2221.68,620.273 4697.464,3294.436 1665.752,1799.224 2432.866,3197.675 2756.99,3920.877 a 9960.0263,9960.0263 0 0 0 -1007.127,-7512.128 z" /><path
           id="path1184-1-3"
           style="fill:#ffebbc;fill-opacity:1;stroke:none;stroke-width:13.7731px;stroke-linecap:butt;stroke-linejoin:miter;stroke-opacity:1"
           d="m 23248.187,70305.352 a 9960.0263,9960.0263 0 0 0 50.404,-88.377 c -136.334,-495.494 -420.486,-1250.635 -1012.397,-2285.354 -1178.013,-2059.284 -2518.719,-3061.409 -2518.719,-3061.409 0,0 573.668,2234.167 -504.333,5715.339 -725.297,2342.197 -1552.834,3705.763 -2017.084,4348.063 a 9960.0263,9960.0263 0 0 0 6002.13,-4628.262 z" /><path
           id="path1184-0-5-5"
           style="fill:#ffebbc;fill-opacity:1;stroke:none;stroke-width:13.7731px;stroke-linecap:butt;stroke-linejoin:miter;stroke-opacity:1"
           d="m 14622.554,75285.381 a 9960.0263,9960.0263 0 0 0 101.737,-0.537 c 360.944,-365.816 872.84,-989.47 1472.978,-2019.439 1194.386,-2049.832 1391.898,-3711.979 1391.898,-3711.979 0,0 -1648.012,1613.895 -5201.797,2420.905 -2391.0496,542.971 -3985.6996,508.086 -4774.0726,427.184 a 9960.0263,9960.0263 0 0 0 7009.2556,2883.867 z" /><path
           id="path1184-4-6"
           style="fill:#ffebbc;fill-opacity:1;stroke:none;stroke-width:13.7731px;stroke-linecap:butt;stroke-linejoin:miter;stroke-opacity:1"
           d="m 5996.9104,70305.374 a 9960.0263,9960.0263 0 0 0 51.335,87.84 c 497.276,129.677 1293.325,261.166 2485.373,265.915 2372.3986,9.452 3910.6166,-650.57 3910.6166,-650.57 0,0 -2221.679,-620.272 -4697.4626,-3294.435 -1665.752,-1799.224 -2432.867,-3197.674 -2756.99,-3920.877 a 9960.0263,9960.0263 0 0 0 1007.126,7512.127 z" /><path
           id="path1184-0-7-2"
           style="fill:#ffebbc;fill-opacity:1;stroke:none;stroke-width:13.7731px;stroke-linecap:butt;stroke-linejoin:miter;stroke-opacity:1"
           d="m 5996.8954,60345.342 a 9960.0263,9960.0263 0 0 0 -50.403,88.376 c 136.334,495.495 420.486,1250.636 1012.396,2285.355 1178.014,2059.284 2518.719,3061.409 2518.719,3061.409 0,0 -573.668,-2234.167 504.334,-5715.341 725.2976,-2342.195 1552.8336,-3705.761 2017.0836,-4348.061 a 9960.0263,9960.0263 0 0 0 -6002.1296,4628.261 z" /><path
           id="path495"
           style="opacity:1;fill:#ffebbc;fill-opacity:1;stroke:none;stroke-width:17.6708;stroke-opacity:1"
           d="m 14622.553,51051.964 c -3785.533,0 -7416.0271,1503.793 -10092.8081,4180.57 -2676.7813,2676.776 -4180.58579,6307.26 -4180.58995,10092.8 0,3785.539 1503.79755,7416.037 4180.57955,10092.818 2676.7819,2676.782 6307.2795,4180.581 10092.8185,4180.58 3785.54,0 7416.024,-1503.81 10092.8,-4180.59 2676.777,-2676.781 4180.571,-6307.275 4180.57,-10092.808 0,-3785.534 -1503.804,-7416.016 -4180.58,-10092.79 -2676.774,-2676.776 -6307.256,-4180.579 -10092.79,-4180.58 z m 0,2148.709 c 3215.661,0 6299.609,1277.424 8573.423,3551.238 2273.814,2273.814 3551.238,5357.762 3551.239,8573.423 0,3215.66 -1277.412,6299.622 -3551.227,8573.442 -2273.816,2273.819 -5357.768,3551.247 -8573.435,3551.248 -3215.666,0 -6299.6308,-1277.418 -8573.4514,-3551.238 C 3775.2808,71624.964 2497.8625,68541 2497.8636,65325.334 c 9e-4,-3215.667 1277.4288,-6299.619 3551.2486,-8573.433 2273.8199,-2273.815 5357.7808,-3551.229 8573.4408,-3551.228 z"
           sodipodi:nodetypes="zzzzzzzzzzzzzzzzzz" /><path
           id="path495-0"
           style="fill:#ffebbc;fill-opacity:1;stroke:none;stroke-width:17.0383;stroke-opacity:1"
           d="m 14622.553,51562.856 c -3650.037,0 -7150.5828,1449.967 -9731.5535,4030.933 -2580.9706,2580.966 -4030.94877,6081.502 -4030.95265,9731.545 0,3650.043 1449.97135,7150.593 4030.94295,9731.563 2580.9707,2580.971 6081.5202,4030.944 9731.5632,4030.943 3650.043,0 7150.579,-1449.983 9731.545,-4030.952 2580.966,-2580.971 4030.934,-6081.517 4030.933,-9731.554 0,-3650.037 -1449.978,-7150.572 -4030.943,-9731.535 -2580.963,-2580.965 -6081.498,-4030.942 -9731.535,-4030.943 z m 0,2071.799 c 3100.561,0 6074.125,1231.7 8266.551,3424.128 2192.428,2192.426 3424.128,5165.99 3424.129,8266.551 0,3100.561 -1231.69,6074.138 -3424.117,8266.571 -2192.428,2192.432 -5165.996,3424.136 -8266.563,3424.137 -3100.567,0 -6074.1467,-1231.695 -8266.5799,-3424.128 -2192.4332,-2192.434 -3424.1286,-5166.013 -3424.1276,-8266.58 0,-3100.567 1231.706,-6074.135 3424.1382,-8266.561 2192.4323,-2192.427 5166.0083,-3424.119 8266.5693,-3424.118 z"
           sodipodi:nodetypes="zzzzzzzzzzzzzzzzzz" /><path
           id="path515-3"
           style="fill:#ffebbc;fill-opacity:1;stroke:none;stroke-width:17.0214px;stroke-linecap:butt;stroke-linejoin:miter;stroke-opacity:1"
           d="m 20843.1,50307.564 c -428.17,-177.354 -871.707,-327.843 -1320.889,-465.556 l -2022.391,2895.017 3989.473,1652.493 617.039,-3477.132 c -415.006,-220.246 -835.053,-427.465 -1263.232,-604.822 z" /><path
           id="path515-3-7"
           style="fill:#ffebbc;fill-opacity:1;stroke:none;stroke-width:17.0214px;stroke-linecap:butt;stroke-linejoin:miter;stroke-opacity:1"
           d="m 26116.777,53831.227 c -327.707,-327.707 -679.892,-636.475 -1042.181,-935.6 l -2976.321,1900.712 3053.411,3053.409 1900.71,-2976.32 c -299.131,-362.297 -607.905,-714.487 -935.619,-1042.201 z" /><path
           id="path515-35"
           style="fill:#ffebbc;fill-opacity:1;stroke:none;stroke-width:17.0214px;stroke-linecap:butt;stroke-linejoin:miter;stroke-opacity:1"
           d="m 29640.324,59104.78 c -177.353,-428.17 -384.569,-848.209 -604.811,-1263.207 l -3477.132,617.039 1652.494,3989.473 2895.016,-2022.392 c -137.716,-449.19 -288.208,-892.734 -465.567,-1320.913 z" /><path
           id="path515-3-2"
           style="fill:#ffebbc;fill-opacity:1;stroke:none;stroke-width:17.0214px;stroke-linecap:butt;stroke-linejoin:miter;stroke-opacity:1"
           d="m 30877.678,65325.353 c 0,-463.448 -30.7,-930.813 -75.364,-1398.504 l -3448.583,-760.569 v 4318.174 l 3448.58,-760.571 c 44.665,-467.7 75.365,-935.073 75.365,-1398.53 z" /><path
           id="path515-3-7-9"
           style="fill:#ffebbc;fill-opacity:1;stroke:none;stroke-width:17.0214px;stroke-linecap:butt;stroke-linejoin:miter;stroke-opacity:1"
           d="m 29640.387,71546.043 c 177.354,-428.17 327.842,-871.707 465.557,-1320.889 l -2895.018,-2022.391 -1652.494,3989.473 3477.132,617.038 c 220.246,-415.006 427.465,-835.053 604.822,-1263.231 z" /><path
           id="path515-35-2"
           style="fill:#ffebbc;fill-opacity:1;stroke:none;stroke-width:17.0214px;stroke-linecap:butt;stroke-linejoin:miter;stroke-opacity:1"
           d="m 26116.671,76819.475 c 327.706,-327.707 636.475,-679.892 935.6,-1042.181 l -1900.711,-2976.32 -3053.41,3053.41 2976.32,1900.71 c 362.297,-299.131 714.487,-607.904 1042.201,-935.619 z" /><path
           id="path515-3-2-7"
           style="fill:#ffebbc;fill-opacity:1;stroke:none;stroke-width:17.0214px;stroke-linecap:butt;stroke-linejoin:miter;stroke-opacity:1"
           d="m 20843.126,80343.151 c 428.17,-177.354 848.209,-384.57 1263.208,-604.811 l -617.041,-3477.133 -3989.473,1652.494 2022.39,2895.015 c 449.191,-137.716 892.737,-288.21 1320.916,-465.567 z" /><path
           id="path515-9"
           style="fill:#ffebbc;fill-opacity:1;stroke:none;stroke-width:17.0214px;stroke-linecap:butt;stroke-linejoin:miter;stroke-opacity:1"
           d="m 14622.541,81580.465 c 463.448,0 930.812,-30.699 1398.501,-75.363 l 760.571,-3448.583 h -4318.174 l 760.572,3448.584 c 467.699,44.665 935.071,75.365 1398.531,75.363 z" /><path
           id="path515-3-6"
           style="fill:#ffebbc;fill-opacity:1;stroke:none;stroke-width:17.0214px;stroke-linecap:butt;stroke-linejoin:miter;stroke-opacity:1"
           d="m 8401.966,80343.122 c 428.17,177.354 871.708,327.842 1320.89,465.556 l 2022.389,-2895.019 -3989.473,-1652.494 -617.037,3477.132 c 415.005,220.248 835.051,427.466 1263.231,604.823 z" /><path
           id="path515-3-7-0"
           style="fill:#ffebbc;fill-opacity:1;stroke:none;stroke-width:17.0214px;stroke-linecap:butt;stroke-linejoin:miter;stroke-opacity:1"
           d="m 3128.291,76819.459 c 327.705,327.705 679.891,636.474 1042.178,935.599 l 2976.323,-1900.713 -3053.411,-3053.41 -1900.708,2976.32 c 299.129,362.295 607.904,714.487 935.619,1042.201 z" /><path
           id="path515-35-6"
           style="fill:#ffebbc;fill-opacity:1;stroke:none;stroke-width:17.0214px;stroke-linecap:butt;stroke-linejoin:miter;stroke-opacity:1"
           d="m -395.259,71545.905 c 177.354,428.169 384.57,848.209 604.811,1263.207 l 3477.132,-617.039 -1652.492,-3989.472 -2895.016,2022.39 c 137.714,449.189 288.207,892.734 465.565,1320.914 z" /><path
           id="path515-3-2-2"
           style="fill:#ffebbc;fill-opacity:1;stroke:none;stroke-width:17.0214px;stroke-linecap:butt;stroke-linejoin:miter;stroke-opacity:1"
           d="m -1632.6132,65325.33 c 2e-4,463.448 30.7019,930.815 75.3639,1398.506 l 3448.5843,760.569 V 63166.23 l -3448.5788,760.571 c -44.6656,467.701 -75.3659,935.075 -75.3647,1398.531 z" /><path
           id="path515-3-7-9-6"
           style="fill:#ffebbc;fill-opacity:1;stroke:none;stroke-width:17.0214px;stroke-linecap:butt;stroke-linejoin:miter;stroke-opacity:1"
           d="m -395.322,59104.643 c -177.352,428.169 -327.841,871.704 -465.558,1320.887 l 2895.021,2022.393 1652.494,-3989.474 -3477.134,-617.038 c -220.244,415.005 -427.462,835.052 -604.82,1263.232 z" /><path
           id="path515-35-2-1"
           style="fill:#ffebbc;fill-opacity:1;stroke:none;stroke-width:17.0214px;stroke-linecap:butt;stroke-linejoin:miter;stroke-opacity:1"
           d="m 3128.393,53831.21 c -327.706,327.706 -636.472,679.891 -935.598,1042.18 l 1900.712,2976.32 3053.408,-3053.409 -2976.318,-1900.71 c -362.297,299.131 -714.488,607.905 -1042.202,935.62 z" /><path
           id="path515-3-2-7-8"
           style="fill:#ffebbc;fill-opacity:1;stroke:none;stroke-width:17.0214px;stroke-linecap:butt;stroke-linejoin:miter;stroke-opacity:1"
           d="m 8401.941,50307.533 c -428.171,177.355 -848.21,384.571 -1263.21,604.812 l 617.042,3477.133 3989.473,-1652.493 -2022.39,-2895.017 c -449.191,137.715 -892.736,288.21 -1320.917,465.568 z" /></g></g><text
       xml:space="preserve"
       style="font-weight:bold;font-size:50.5961px;line-height:1;font-family:'IBM Plex Sans';-inkscape-font-specification:'IBM Plex Sans Bold';fill:#ffebbc;fill-opacity:1;stroke:none;stroke-width:0.515875"
       x="41.425697"
       y="310.02057"
       id="text1978"><tspan
         sodipodi:role="line"
         id="tspan1976"
         style="font-size:50.5961px;fill:#ffebbc;fill-opacity:1;stroke:none;stroke-width:0.515875"
         x="41.425697"
         y="310.02057">Aberystwyth</tspan><tspan
         sodipodi:role="line"
         style="font-size:50.5961px;fill:#ffebbc;fill-opacity:1;stroke:none;stroke-width:0.515875"
         x="41.425697"
         y="360.61667"
         id="tspan1980">Robotics Club</tspan></text><text
       xml:space="preserve"
       style="font-weight:bold;font-size:25.4px;line-height:1;font-family:'IBM Plex Sans';-inkscape-font-specification:'IBM Plex Sans Bold';fill:#ffd97e;fill-opacity:1;stroke:none;stroke-width:0.208033"
       x="40.989819"
       y="402.33154"
       id="text1978-2"><tspan
         sodipodi:role="line"
         style="font-style:normal;font-variant:normal;font-weight:500;font-stretch:normal;font-size:25.4px;font-family:'IBM Plex Sans';-inkscape-font-specification:'IBM Plex Sans, Medium';font-variant-ligatures:normal;font-variant-caps:normal;font-variant-numeric:normal;font-variant-east-asian:normal;fill:#ffd97e;fill-opacity:1;stroke:none;stroke-width:0.208033"
         x="40.989819"
         y="402.33154"
         id="tspan2952">Undergraduate branch </tspan><tspan
         sodipodi:role="line"
         style="font-style:normal;font-variant:normal;font-weight:500;font-stretch:normal;font-size:25.4px;font-family:'IBM Plex Sans';-inkscape-font-specification:'IBM Plex Sans, Medium';font-variant-ligatures:normal;font-variant-caps:normal;font-variant-numeric:normal;font-variant-east-asian:normal;fill:#ffd97e;fill-opacity:1;stroke:none;stroke-width:0.208033"
         x="40.989819"
         y="427.73154"
         id="tspan3605">2023 - 2024</tspan></text></g></svg>
